<?xml version="1.0" encoding="UTF-8"?>
<svg xmlns="http://www.w3.org/2000/svg" width="1090" height="360" viewBox="0 0 1090 360">
  <path fill="#1877F2" d="M881.58 198.94c7.68 0 14.29-9.27 14.29-20.71s-6.61-20.71-14.29-20.71-14.29 9.27-14.29 20.71 6.61 20.71 14.29 20.71zm-68.27 0c7.68 0 14.29-9.27 14.29-20.71s-6.61-20.71-14.29-20.71-14.29 9.27-14.29 20.71 6.61 20.71 14.29 20.71z"/>
  <path fill="#1877F2" d="M140.39 49.85h989.98c60.19 0 109.63 49.44 109.63 109.63v50.89c0 60.19-49.44 109.63-109.63 109.63H140.39c-60.19 0-109.63-49.44-109.63-109.63v-50.89c0-60.19 49.44-109.63 109.63-109.63z"/>
  <path fill="#FFFFFF" d="M355.75 139.75v32h-37.85v155.44h-47.38V171.75h-37.85v-32h123.08zm41.27 187.44V139.75h45.17v187.44h-45.17zm117.95-193.93c31.58 0 50.89 18.91 50.89 47.38v146.55h-45.17V191.95c0-17.1-8.15-25.64-24.44-25.64-14.49 0-24.44 8.54-24.44 25.64v135.24h-45.17V139.75h45.17v18.91c8.94-14.49 24.44-25.64 43.16-25.64zm162.41 0c31.58 0 50.89 18.91 50.89 47.38v146.55h-45.17V191.95c0-17.1-8.15-25.64-24.44-25.64-14.49 0-24.44 8.54-24.44 25.64v135.24h-45.17V139.75h45.17v18.91c8.94-14.49 24.44-25.64 43.16-25.64z"/>
</svg>
